<svg xmlns="http://www.w3.org/2000/svg" viewBox="0 0 32 32"><g id="photos"><path d="M25.65,4H6.35A4.35,4.35,0,0,0,2,8.35v15.3A4.35,4.35,0,0,0,6.35,28h19.3A4.35,4.35,0,0,0,30,23.65V8.35A4.35,4.35,0,0,0,25.65,4ZM28,23.65A2.36,2.36,0,0,1,25.65,26H6.35A2.36,2.36,0,0,1,4,23.65V8.35A2.36,2.36,0,0,1,6.35,6h19.3A2.36,2.36,0,0,1,28,8.35Z"/><path d="M21.53,12.85a2.21,2.21,0,0,0-4-.12l-4.37,8.32-.9-1.33a2.19,2.19,0,0,0-3.46-.24L6.26,22.33a1,1,0,1,0,1.48,1.34l2.57-2.86a.18.18,0,0,1,.17-.06.18.18,0,0,1,.15.09l1.84,2.72a1,1,0,0,0,.88.44,1,1,0,0,0,.84-.54l5.15-9.8a.18.18,0,0,1,.18-.11.17.17,0,0,1,.18.12l4.39,9.74A1,1,0,0,0,25,24a1,1,0,0,0,.41-.09,1,1,0,0,0,.5-1.32Z"/><path d="M10,16a4,4,0,1,0-4-4A4,4,0,0,0,10,16Zm0-6a2,2,0,1,1-2,2A2,2,0,0,1,10,10Z"/></g></svg>