<?xml version="1.0" encoding="iso-8859-1"?>
<!-- Generator: Adobe Illustrator 19.0.0, SVG Export Plug-In . SVG Version: 6.00 Build 0)  -->
<svg version="1.1" id="Layer_1" xmlns="http://www.w3.org/2000/svg" xmlns:xlink="http://www.w3.org/1999/xlink" x="0px" y="0px"
	 viewBox="0 0 511.979 511.979" style="enable-background:new 0 0 511.979 511.979;" xml:space="preserve">
<g>
	<g>
		<g>
			<path d="M314.773,348.597l-58.795-14.677l-4.331-17.429c15.552-15.915,26.325-37.248,29.888-59.264
				c9.173-3.285,16.107-11.499,17.365-21.632l3.947-31.531c0.939-7.445-1.387-14.976-6.315-20.629
				c-2.411-2.773-5.376-4.992-8.64-6.528l1.301-26.667l5.184-5.205c9.579-10.176,17.557-27.563,1.152-52.565
				c-12.352-18.901-33.216-28.48-62.037-28.48c-11.115,0-36.608,0-60.629,15.808c-69.248,1.749-78.251,35.968-78.251,65.813
				c0,6.784,1.472,20.992,2.603,30.784c-3.669,1.515-6.955,3.861-9.664,6.912c-5.035,5.696-7.36,13.269-6.4,20.779l3.947,31.531
				c1.323,10.816,9.152,19.477,19.264,22.229c3.563,21.077,13.739,41.664,28.373,57.237l-4.715,18.859L69.227,348.64
				C28.459,358.816,0,395.296,0,437.301c0,5.888,4.779,10.667,10.667,10.667l362.667,0.043c2.837,0,5.547-1.195,7.531-3.179
				c1.984-2.005,3.136-4.736,3.136-7.573C384,395.275,355.541,358.816,314.773,348.597z M22.165,426.635
				c4.203-27.563,24.533-50.368,52.267-57.344l65.003-16.235c3.819-0.96,6.805-3.947,7.765-7.765l7.723-30.933
				c0.939-3.755-0.235-7.723-3.072-10.368c-15.424-14.485-25.664-35.691-27.328-56.747c-0.427-5.525-5.056-9.813-10.624-9.813h-2.56
				c-2.56,0-4.736-1.899-5.056-4.459l-3.947-31.573c-0.235-2.005,0.661-3.371,1.216-4.011c0.597-0.64,1.835-1.728,5.461-1.728
				c3.072,0,5.973-1.301,8-3.605c2.048-2.283,2.987-5.355,2.603-8.384c-1.024-8.021-3.669-30.528-3.669-38.08
				c0-19.584,0-43.925,60.395-44.523c2.176-0.021,4.309-0.704,6.101-1.984c16.96-12.139,35.328-13.781,51.051-13.781
				c21.141,0,36.011,6.336,44.203,18.837c9.344,14.272,5.824,21.291,1.365,26.027l-7.872,7.893
				c-1.877,1.877-2.987,4.373-3.115,7.019l-1.92,39.467c-0.149,2.901,0.896,5.717,2.88,7.829s4.736,3.328,7.637,3.349
				c2.005,0.021,3.243,1.109,3.797,1.749c0.576,0.64,1.472,2.005,1.216,3.968l-3.947,31.552c-0.299,2.539-2.496,4.459-5.824,4.459
				c-5.568,0-10.176,4.288-10.624,9.835c-1.728,21.717-12.416,43.349-28.629,57.877c-2.923,2.624-4.181,6.677-3.221,10.517
				l7.403,29.632c0.96,3.819,3.925,6.827,7.765,7.765l65.003,16.235c27.733,6.933,48.043,29.76,52.245,57.344L22.165,426.635z"/>
			<path d="M442.773,348.576l-58.795-14.677l-4.331-17.429c15.552-15.915,26.325-37.248,29.888-59.264
				c9.173-3.285,16.107-11.499,17.365-21.632l3.947-31.531c0.939-7.445-1.408-14.976-6.315-20.629
				c-2.411-2.773-5.376-4.992-8.64-6.528l1.301-26.667l5.184-5.205c9.6-10.197,17.557-27.584,1.173-52.565
				c-12.373-18.901-33.237-28.48-62.059-28.48c-10.56,0-24.64,0.661-39.787,5.781c-5.568,1.899-8.576,7.936-6.677,13.525
				c1.877,5.568,7.936,8.597,13.525,6.677c12.203-4.117,24.021-4.651,32.96-4.651c21.163,0,36.011,6.336,44.203,18.837
				c9.344,14.272,5.824,21.291,1.365,26.027l-7.872,7.893c-1.877,1.877-2.987,4.373-3.115,7.019l-1.92,39.467
				c-0.149,2.901,0.896,5.717,2.88,7.829s4.736,3.328,7.637,3.349c2.005,0.021,3.243,1.109,3.797,1.749
				c0.576,0.64,1.472,2.005,1.216,3.968l-3.947,31.552c-0.299,2.539-2.496,4.459-5.824,4.459c-5.568,0-10.176,4.288-10.624,9.835
				c-1.728,21.717-12.416,43.349-28.629,57.877c-2.923,2.624-4.181,6.677-3.221,10.517l7.403,29.632
				c0.96,3.819,3.925,6.827,7.765,7.765l65.003,16.235c27.733,6.933,48.043,29.76,52.245,57.344H416v21.333l85.312-0.085
				c5.888,0,10.667-4.779,10.667-10.667C512,395.232,483.541,358.773,442.773,348.576z"/>
		</g>
	</g>
</g>
<g>
</g>
<g>
</g>
<g>
</g>
<g>
</g>
<g>
</g>
<g>
</g>
<g>
</g>
<g>
</g>
<g>
</g>
<g>
</g>
<g>
</g>
<g>
</g>
<g>
</g>
<g>
</g>
<g>
</g>
</svg>
